<?xml version="1.0" encoding="UTF-8" standalone="no"?>
<svg width="60px" height="60px" viewBox="0 0 60 60" version="1.1" xmlns="http://www.w3.org/2000/svg" xmlns:xlink="http://www.w3.org/1999/xlink">
    <!-- Generator: Sketch 3.6.1 (26313) - http://www.bohemiancoding.com/sketch -->
    <title>newsplus-logo-small</title>
    <desc>Created with Sketch.</desc>
    <defs></defs>
    <g id="Page-1" stroke="none" stroke-width="1" fill="none" fill-rule="evenodd" fill-opacity="0.501075634">
        <g id="newsplus-logo-small" fill="#C2C2C2">
            <g id="Group" transform="translate(3.000000, 0.000000)">
                <path d="M5.23358873,15.3106287 C10.1483605,8.64027372 18.0676352,4.31137725 27,4.31137725 C41.9116882,4.31137725 54,16.3755606 54,31.257485 C54,46.1394094 41.9116882,58.2035928 27,58.2035928 C18.2748108,58.2035928 10.5162619,54.0731748 5.58038963,47.6646707 L15.3930469,47.6646707 L15.3930469,43.7759637 L11.9196094,43.1093282 L11.9196094,25.9101329 L12.0532031,25.8879117 L25.1453906,47.6646707 L31.6246875,47.6646707 L31.6246875,19.8881924 L35.098125,19.2215569 L35.098125,15.3106287 L31.6246875,15.3106287 L21.6719531,15.3106287 L21.6719531,19.2215569 L25.1453906,19.8881924 L25.1453906,37.0651665 L25.0117969,37.0873877 L11.9196094,15.3106287 L5.41804688,15.3106287 L5.23358873,15.3106287 Z M2.7602879,19.3748142 C0.992782475,22.9592077 0,26.9926394 0,31.257485 C0,35.6976281 1.07607214,39.8869427 2.98214795,43.5798515 L5.41804688,43.1093282 L5.41804688,19.8881924 L2.7602879,19.3748142 Z" id="Combined-Shape"></path>
            </g>
        </g>
    </g>
</svg>